<svg width="18" height="19" viewBox="0 0 18 19" fill="none" xmlns="http://www.w3.org/2000/svg">
<path d="M7 3.16675C7.17681 3.16675 7.34638 3.23699 7.4714 3.36201C7.59643 3.48703 7.66667 3.6566 7.66667 3.83341V4.50008H10.3333V3.83341C10.3333 3.6566 10.4036 3.48703 10.5286 3.36201C10.6536 3.23699 10.8232 3.16675 11 3.16675C11.1768 3.16675 11.3464 3.23699 11.4714 3.36201C11.5964 3.48703 11.6667 3.6566 11.6667 3.83341V4.50008H13.6667C14.0203 4.50008 14.3594 4.64056 14.6095 4.89061C14.8595 5.14065 15 5.47979 15 5.83341V14.5001C15 14.8537 14.8595 15.1928 14.6095 15.4429C14.3594 15.6929 14.0203 15.8334 13.6667 15.8334H4.33333C3.97971 15.8334 3.64057 15.6929 3.39052 15.4429C3.14048 15.1928 3 14.8537 3 14.5001V5.83341C3 5.47979 3.14048 5.14065 3.39052 4.89061C3.64057 4.64056 3.97971 4.50008 4.33333 4.50008H6.33333V3.83341C6.33333 3.6566 6.40357 3.48703 6.5286 3.36201C6.65362 3.23699 6.82319 3.16675 7 3.16675ZM6.33333 5.83341H4.33333V7.83342H13.6667V5.83341H11.6667V6.50008C11.6667 6.67689 11.5964 6.84646 11.4714 6.97149C11.3464 7.09651 11.1768 7.16675 11 7.16675C10.8232 7.16675 10.6536 7.09651 10.5286 6.97149C10.4036 6.84646 10.3333 6.67689 10.3333 6.50008V5.83341H7.66667V6.50008C7.66667 6.67689 7.59643 6.84646 7.4714 6.97149C7.34638 7.09651 7.17681 7.16675 7 7.16675C6.82319 7.16675 6.65362 7.09651 6.5286 6.97149C6.40357 6.84646 6.33333 6.67689 6.33333 6.50008V5.83341ZM13.6667 9.16675H4.33333V14.5001H13.6667V9.16675Z" fill="#2C2C2C"/>
</svg>
