<svg width="18" height="18" viewBox="0 0 18 18" fill="none" xmlns="http://www.w3.org/2000/svg">
<path d="M9 3C5.68575 3 3 5.6865 3 9C3 12.3135 5.68575 15 9 15C12.3142 15 15 12.3135 15 9C15 5.6865 12.3142 3 9 3ZM11.7802 10.7198C11.9209 10.8604 11.9999 11.0511 11.9999 11.25C11.9999 11.4489 11.9209 11.6396 11.7802 11.7802C11.6396 11.9209 11.4489 11.9999 11.25 11.9999C11.0511 11.9999 10.8604 11.9209 10.7198 11.7802L9 10.0605L7.28025 11.7802C7.21076 11.8501 7.12814 11.9056 7.03714 11.9434C6.94614 11.9813 6.84856 12.0008 6.75 12.0008C6.65144 12.0008 6.55386 11.9813 6.46286 11.9434C6.37186 11.9056 6.28924 11.8501 6.21975 11.7802C6.15004 11.7107 6.09474 11.628 6.057 11.537C6.01927 11.446 5.99985 11.3485 5.99985 11.25C5.99985 11.1515 6.01927 11.054 6.057 10.963C6.09474 10.872 6.15004 10.7893 6.21975 10.7198L7.9395 9L6.21975 7.28025C6.07912 7.13962 6.00011 6.94888 6.00011 6.75C6.00011 6.55112 6.07912 6.36038 6.21975 6.21975C6.36038 6.07912 6.55112 6.00011 6.75 6.00011C6.94888 6.00011 7.13962 6.07912 7.28025 6.21975L9 7.9395L10.7198 6.21975C10.8604 6.07912 11.0511 6.00011 11.25 6.00011C11.4489 6.00011 11.6396 6.07912 11.7802 6.21975C11.9209 6.36038 11.9999 6.55112 11.9999 6.75C11.9999 6.94888 11.9209 7.13962 11.7802 7.28025L10.0605 9L11.7802 10.7198Z" fill="#003C71"/>
</svg>
