<svg width="18" height="19" viewBox="0 0 18 19" fill="none" xmlns="http://www.w3.org/2000/svg">
<path d="M4.5 11.4167V6.91675C4.5 5.72327 4.97411 4.57868 5.81802 3.73477C6.66193 2.89085 7.80653 2.41675 9 2.41675C10.1935 2.41675 11.3381 2.89085 12.182 3.73477C13.0259 4.57868 13.5 5.72327 13.5 6.91675V12.9167C13.5 13.7124 13.1839 14.4755 12.6213 15.0381C12.0587 15.6007 11.2956 15.9167 10.5 15.9167C9.70435 15.9167 8.94129 15.6007 8.37868 15.0381C7.81607 14.4755 7.5 13.7124 7.5 12.9167V6.91675C7.5 6.51892 7.65804 6.13739 7.93934 5.85609C8.22064 5.57478 8.60218 5.41675 9 5.41675C9.39782 5.41675 9.77936 5.57478 10.0607 5.85609C10.342 6.13739 10.5 6.51892 10.5 6.91675V12.9167" stroke="#2C2C2C" stroke-width="2" stroke-linecap="round" stroke-linejoin="round"/>
</svg>
